<?xml version="1.0" encoding="UTF-8" standalone="no"?>
<!-- Created with Inkscape (http://www.inkscape.org/) -->

<svg
   xmlns:dc="http://purl.org/dc/elements/1.1/"
   xmlns:cc="http://creativecommons.org/ns#"
   xmlns:rdf="http://www.w3.org/1999/02/22-rdf-syntax-ns#"
   xmlns:svg="http://www.w3.org/2000/svg"
   xmlns="http://www.w3.org/2000/svg"
   xmlns:sodipodi="http://sodipodi.sourceforge.net/DTD/sodipodi-0.dtd"
   xmlns:inkscape="http://www.inkscape.org/namespaces/inkscape"
   version="1.1"
   id="svg16374"
   xml:space="preserve"
   width="800"
   height="800"
   viewBox="0 0 800 800"
   sodipodi:docname="car-top-clipart-publicdomainvectors.org.svg"
   inkscape:version="0.92.4 (5da689c313, 2019-01-14)"><metadata
     id="metadata16380"><rdf:RDF><cc:Work
         rdf:about=""><dc:format>image/svg+xml</dc:format><dc:type
           rdf:resource="http://purl.org/dc/dcmitype/StillImage" /><dc:title></dc:title></cc:Work></rdf:RDF></metadata><defs
     id="defs16378"><clipPath
       clipPathUnits="userSpaceOnUse"
       id="clipPath16390"><path
         d="M 0,600 H 600 V 0 H 0 Z"
         id="path16388"
         inkscape:connector-curvature="0" /></clipPath></defs><sodipodi:namedview
     pagecolor="#ffffff"
     bordercolor="#666666"
     borderopacity="1"
     objecttolerance="10"
     gridtolerance="10"
     guidetolerance="10"
     inkscape:pageopacity="0"
     inkscape:pageshadow="2"
     inkscape:window-width="797"
     inkscape:window-height="480"
     id="namedview16376"
     showgrid="false"
     inkscape:zoom="0.295"
     inkscape:cx="400"
     inkscape:cy="400"
     inkscape:window-x="-8"
     inkscape:window-y="-8"
     inkscape:window-maximized="1"
     inkscape:current-layer="g16382" /><g
     id="g16382"
     inkscape:groupmode="layer"
     inkscape:label="car-top-clipart-publicdomainvectors.org"
     transform="matrix(1.3333333,0,0,-1.3333333,0,800)"><g
       id="g16384"><g
         id="g16386"
         clip-path="url(#clipPath16390)"><path
           d="m 270.654,446.218 c -8.761,-15.558 -19.636,-29.65 -33.123,-43.137 l -31.728,-31.727 c -13.487,-13.488 -27.578,-24.363 -43.136,-33.123 -16.86,-9.494 -30.009,-19.457 -43.554,-33.003 L 57.249,243.363 C 45.04,231.156 42.663,212.67 50.98,194.661 c 11.323,-24.513 31.345,-49.573 55.832,-74.059 24.487,-24.488 49.548,-44.508 74.061,-55.831 18.009,-8.32 36.494,-5.94 48.703,6.267 l 61.861,61.862 c 13.545,13.545 23.508,26.695 33.004,43.555 8.758,15.558 19.637,29.652 33.125,43.14 l 31.725,31.724 c 13.488,13.49 27.58,24.364 43.139,33.126 16.859,9.494 30.011,19.457 43.556,33.004 l 61.86,61.862 c 26.605,26.604 4.515,96.448 -35.68,136.645 -40.197,40.195 -110.039,62.285 -136.645,35.681 l -61.865,-61.866 c -13.544,-13.543 -23.509,-26.693 -33.002,-43.553"
           style="fill:#474a4e;fill-opacity:1;fill-rule:evenodd;stroke:none"
           id="path16392"
           inkscape:connector-curvature="0" /><path
           d="m 276.625,445.446 c 8.407,15.705 17.837,28.492 30.352,41.007 l 61.865,61.864 c 8.81,8.813 26.361,7.625 38.211,5.307 20.713,-4.055 42.388,-14.431 60.156,-26.532 8.992,-6.125 17.578,-13.074 25.299,-20.795 7.721,-7.72 14.67,-16.305 20.795,-25.298 12.101,-17.769 22.476,-39.443 26.531,-60.156 2.318,-11.851 3.508,-29.401 -5.307,-38.214 L 472.664,320.768 C 460.15,308.254 447.363,298.822 431.658,290.414 414.293,281.118 398.953,269.325 385.119,255.49 L 353.395,223.766 C 339.561,209.933 327.766,194.591 318.469,177.227 310.063,161.521 300.632,148.733 288.118,136.22 L 226.253,74.356 c -9.106,-9.107 -22.773,-8.091 -34.55,-2.292 -27.329,13.466 -53.649,36.611 -75.234,58.196 -21.584,21.583 -44.728,47.902 -58.192,75.232 -5.803,11.778 -6.819,25.443 2.29,34.552 l 61.865,61.865 c 12.514,12.514 25.302,21.945 41.006,30.353 17.364,9.295 32.703,21.088 46.536,34.92 l 31.728,31.726 c 13.833,13.834 25.627,29.174 34.923,46.538"
           style="fill:#8c9197;fill-opacity:1;fill-rule:evenodd;stroke:none"
           id="path16394"
           inkscape:connector-curvature="0" /><path
           d="M 301.176,437.699 C 344.504,486.506 471.619,359.83 423.51,315.366 382.732,356.142 341.953,396.921 301.176,437.699"
           style="fill:#000000;fill-opacity:1;fill-rule:evenodd;stroke:none"
           id="path16396"
           inkscape:connector-curvature="0" /><path
           d="M 288.236,437.14 C 229.357,362.047 163.243,294.919 88.447,237.35 c -19.688,-15.154 6.446,-58.696 41.339,-93.558 34.861,-34.893 78.403,-61.025 93.556,-41.338 57.572,74.794 124.697,140.909 199.791,199.789 21.806,17.098 -3.354,61.702 -38.307,96.59 -34.887,34.952 -79.49,60.113 -96.59,38.307"
           style="fill:#1a1a1a;fill-opacity:1;fill-rule:evenodd;stroke:none"
           id="path16398"
           inkscape:connector-curvature="0" /><path
           d="m 272.482,391.576 c 12.387,1.822 54,-35.538 61.776,-43.312 7.775,-7.774 45.135,-49.387 43.312,-61.775 C 317.188,238.18 261.958,183.902 214.01,123.186 c -13.486,1.178 -51.341,35.716 -60.227,44.603 -8.888,8.888 -43.426,46.741 -44.605,60.229 60.718,47.947 114.995,103.176 163.304,163.558"
           style="fill:#8c9197;fill-opacity:1;fill-rule:evenodd;stroke:none"
           id="path16400"
           inkscape:connector-curvature="0" /><path
           d="m 285.542,387.092 c -5.823,10.698 10.546,62.014 37.599,61.458 -9.346,12.052 -36.367,7.368 -49.738,-16.797 3.163,-9.278 4.72,-29.152 -10.635,-52.149 2.068,-4.966 14.82,-2.485 22.774,7.488"
           style="fill:#8c9197;fill-opacity:1;fill-rule:evenodd;stroke:none"
           id="path16402"
           inkscape:connector-curvature="0" /><path
           d="m 140.133,253.561 c -8.949,-4.533 -19.972,-5.606 -33.75,-2.09 -21.714,-7.782 -45.846,-14.342 -21.239,-45.492 -1.156,9.372 19.567,17.987 29.124,10.005 8.622,12.526 17.243,25.051 25.865,37.577"
           style="fill:#8c9197;fill-opacity:1;fill-rule:evenodd;stroke:none"
           id="path16404"
           inkscape:connector-curvature="0" /><path
           d="m 239.66,154.032 c -4.533,-8.948 -5.606,-19.97 -2.09,-33.748 -7.781,-21.716 -14.342,-45.847 -45.489,-21.24 9.37,-1.157 17.986,19.568 10.003,29.127 12.525,8.62 25.05,17.24 37.576,25.861"
           style="fill:#8c9197;fill-opacity:1;fill-rule:evenodd;stroke:none"
           id="path16406"
           inkscape:connector-curvature="0" /><path
           d="M 268.725,372.754 138.045,242.075 c -1.66,-1.66 -1.66,-4.375 0,-6.034 l 0.001,-0.002 c 1.662,-1.659 4.375,-1.659 6.035,0 l 130.68,130.679 c 1.659,1.661 1.659,4.375 -0.002,6.036 -1.659,1.659 -4.374,1.659 -6.034,0"
           style="fill:#e6e6e6;fill-opacity:1;fill-rule:evenodd;stroke:none"
           id="path16408"
           inkscape:connector-curvature="0" /><path
           d="M 351.117,290.363 220.438,159.684 c -1.661,-1.66 -1.66,-4.374 0,-6.035 1.659,-1.66 4.374,-1.66 6.035,0 l 130.679,130.678 c 1.659,1.659 1.659,4.376 -0.002,6.036 -1.66,1.659 -4.375,1.659 -6.033,0"
           style="fill:#e6e6e6;fill-opacity:1;fill-rule:evenodd;stroke:none"
           id="path16410"
           inkscape:connector-curvature="0" /><path
           d="m 210.478,315.111 -14.486,24.145 -23.388,-23.39 25.953,-12.976 z"
           style="fill:#8c9197;fill-opacity:1;fill-rule:evenodd;stroke:none"
           id="path16412"
           inkscape:connector-curvature="0" /><path
           d="m 300.006,225.582 24.144,-14.485 -23.389,-23.389 -12.977,25.954 z"
           style="fill:#8c9197;fill-opacity:1;fill-rule:evenodd;stroke:none"
           id="path16414"
           inkscape:connector-curvature="0" /><path
           d="m 452.404,325.488 c 40.196,35.198 58.58,72.287 69.715,125.246 -18.805,-48.357 -39.922,-86.463 -69.715,-125.246 M 311.697,466.194 c 35.199,40.197 72.289,58.582 125.246,69.715 -48.355,-18.804 -86.461,-39.922 -125.246,-69.715"
           style="fill:#2e2f32;fill-opacity:1;fill-rule:evenodd;stroke:none"
           id="path16416"
           inkscape:connector-curvature="0" /><path
           d="m 422.189,557.305 c -32.595,6.518 -56.13,0.621 -66.998,-22.636 16.207,14.068 38.319,21.846 66.998,22.636"
           style="fill:#ffffff;fill-opacity:1;fill-rule:evenodd;stroke:none"
           id="path16418"
           inkscape:connector-curvature="0" /><path
           d="m 543.516,435.979 c 6.519,-32.596 0.621,-56.132 -22.637,-66.999 14.068,16.207 21.846,38.32 22.637,66.999"
           style="fill:#ffffff;fill-opacity:1;fill-rule:evenodd;stroke:none"
           id="path16420"
           inkscape:connector-curvature="0" /><path
           d="m 372.6,300.033 c 10.701,-5.823 62.015,10.546 61.459,37.599 12.052,-9.346 7.369,-36.368 -16.797,-49.737 -9.278,3.161 -29.153,4.719 -52.147,-10.636 -4.969,2.067 -2.488,14.82 7.485,22.774"
           style="fill:#8c9197;fill-opacity:1;fill-rule:evenodd;stroke:none"
           id="path16422"
           inkscape:connector-curvature="0" /><path
           d="m 287.216,460.658 -24.316,7.415 c -6.135,1.87 -18.921,-1.905 -17.565,-8.837 0.303,-1.545 1.227,-2.745 2.644,-3.429 l 31.438,-15.199 c 2.216,-1.071 4.529,-1.154 6.819,-0.244 2.287,0.91 3.911,2.56 4.787,4.862 l 1.641,4.315 c 0.866,2.275 0.758,4.556 -0.313,6.74 -1.07,2.186 -2.808,3.666 -5.135,4.377"
           style="fill:#474a4e;fill-opacity:1;fill-rule:evenodd;stroke:none"
           id="path16424"
           inkscape:connector-curvature="0" /><path
           d="m 246.572,463.716 c -1.055,-1.28 -1.568,-2.785 -1.237,-4.48 0.303,-1.545 1.227,-2.745 2.644,-3.429 l 31.438,-15.199 c 2.216,-1.071 4.529,-1.154 6.819,-0.244 2.287,0.91 3.911,2.56 4.787,4.862 z"
           style="fill:#1a1a1a;fill-opacity:1;fill-rule:evenodd;stroke:none"
           id="path16426"
           inkscape:connector-curvature="0" /><path
           d="m 448.475,299.399 7.416,-24.315 c 1.869,-6.135 -1.907,-18.923 -8.838,-17.566 -1.545,0.302 -2.744,1.228 -3.43,2.645 l -15.197,31.436 c -1.072,2.216 -1.155,4.531 -0.244,6.819 0.91,2.287 2.558,3.913 4.861,4.787 l 4.314,1.642 c 2.276,0.865 4.557,0.759 6.741,-0.311 2.187,-1.071 3.666,-2.808 4.377,-5.137"
           style="fill:#474a4e;fill-opacity:1;fill-rule:evenodd;stroke:none"
           id="path16428"
           inkscape:connector-curvature="0" /><path
           d="m 451.533,258.755 c -1.281,-1.054 -2.785,-1.568 -4.48,-1.237 -1.545,0.302 -2.744,1.228 -3.43,2.645 l -15.197,31.436 c -1.072,2.216 -1.155,4.531 -0.244,6.819 0.91,2.287 2.558,3.913 4.861,4.787 z"
           style="fill:#1a1a1a;fill-opacity:1;fill-rule:evenodd;stroke:none"
           id="path16430"
           inkscape:connector-curvature="0" /></g></g></g></svg>
