<?xml version="1.0" encoding="UTF-8" ?>
<!DOCTYPE svg PUBLIC "-//W3C//DTD SVG 1.1//EN" "http://www.w3.org/Graphics/SVG/1.1/DTD/svg11.dtd">
<svg width="225pt" height="225pt" viewBox="0 0 225 225" version="1.1" xmlns="http://www.w3.org/2000/svg">
<g id="#f5f6f7ff">
<path fill="#f5f6f7" opacity="1.00" d=" M 54.92 58.31 C 74.99 51.07 95.13 44.03 115.17 36.74 C 127.87 41.22 140.54 45.81 153.25 50.28 C 149.28 61.09 156.27 74.59 167.56 77.21 C 169.56 77.70 171.64 77.60 173.69 77.64 C 171.35 97.93 168.91 118.20 166.68 138.50 C 149.48 147.94 132.37 157.55 115.16 166.98 C 98.27 157.35 81.20 148.02 64.17 138.63 C 62.03 122.49 60.44 106.27 58.44 90.11 C 57.50 79.48 55.70 68.95 54.92 58.31 M 77.65 136.04 C 82.36 135.78 87.08 135.92 91.80 135.87 C 92.18 134.85 92.57 133.83 92.97 132.82 C 95.04 127.55 97.17 122.31 99.27 117.06 C 110.03 117.04 120.80 117.03 131.56 117.16 C 133.95 123.53 136.55 129.81 139.07 136.13 C 143.79 136.17 148.52 136.15 153.24 136.14 C 141.29 109.38 129.40 82.58 117.43 55.83 C 116.79 54.37 116.16 52.90 115.51 51.44 C 102.67 79.54 90.40 107.90 77.65 136.04 Z" />
<path fill="#f5f6f7" opacity="1.00" d=" M 171.18 55.29 C 171.30 53.52 171.46 51.76 171.66 49.99 C 174.36 50.35 173.87 53.13 174.00 55.11 C 175.56 55.27 177.21 55.16 178.67 55.86 C 179.01 58.50 175.49 57.47 173.96 57.81 C 173.88 59.53 173.81 61.25 173.75 62.97 C 173.15 62.93 171.95 62.86 171.35 62.82 C 171.32 61.13 171.28 59.44 171.25 57.75 C 169.84 57.72 168.43 57.71 167.02 57.70 C 167.02 57.10 167.03 55.88 167.03 55.28 C 168.41 55.28 169.79 55.29 171.18 55.29 Z" />
<path fill="#f5f6f7" opacity="1.00" d=" M 104.33 105.26 C 108.00 96.42 111.41 87.46 115.51 78.82 C 116.14 80.34 116.79 81.86 117.41 83.38 C 120.26 90.49 123.33 97.50 126.22 104.59 L 126.47 105.21 C 119.09 105.29 111.71 105.38 104.33 105.26 Z" />
<path fill="#f5f6f7" opacity="1.00" d=" M 13.49 180.50 C 20.40 176.66 27.00 172.27 33.88 168.38 C 42.51 172.47 51.04 176.80 59.81 180.56 C 56.65 182.73 53.33 184.66 50.01 186.57 C 46.48 188.56 43.04 190.70 39.64 192.89 C 33.92 190.48 28.45 187.55 22.76 185.08 C 19.64 183.62 16.41 182.35 13.49 180.50 Z" />
<path fill="#f5f6f7" opacity="1.00" d=" M 114.85 181.34 C 115.12 181.79 115.66 182.71 115.93 183.17 C 115.66 183.40 115.13 183.87 114.86 184.10 C 115.01 188.05 115.59 192.14 114.40 195.99 C 113.75 191.21 113.34 186.01 114.85 181.34 Z" />
<path fill="#f5f6f7" opacity="1.00" d=" M 189.94 184.35 C 187.79 181.94 193.47 181.45 191.53 184.12 C 191.13 184.18 190.33 184.29 189.94 184.35 Z" />
<path fill="#f5f6f7" opacity="1.00" d=" M 204.66 190.00 C 205.08 187.32 203.58 183.81 206.04 181.84 C 206.33 186.79 206.43 191.77 205.95 196.71 C 203.75 195.17 204.96 192.21 204.66 190.00 Z" />
<path fill="#f5f6f7" opacity="1.00" d=" M 67.64 197.11 C 69.55 191.94 70.92 186.41 73.99 181.78 C 77.15 186.09 78.55 191.43 80.45 196.37 C 78.26 196.53 77.85 194.57 77.21 193.01 L 76.78 192.04 C 74.97 191.97 73.16 192.00 71.36 192.00 C 70.72 194.09 69.79 196.16 67.64 197.11 M 72.12 190.31 C 73.43 190.42 74.75 190.49 76.07 190.54 C 75.55 188.61 74.89 186.73 74.26 184.85 C 73.33 186.55 72.13 188.30 72.12 190.31 Z" />
<path fill="#f5f6f7" opacity="1.00" d=" M 140.75 182.50 C 141.49 182.56 142.97 182.69 143.71 182.75 C 144.74 186.61 146.10 190.38 147.43 194.16 C 148.76 190.41 149.94 186.61 151.21 182.84 C 151.94 182.69 153.39 182.41 154.12 182.27 C 153.83 186.88 153.99 191.51 153.98 196.13 C 153.43 196.26 152.33 196.51 151.78 196.64 C 152.03 194.35 152.01 192.05 152.00 189.75 C 152.01 188.41 151.99 187.06 151.92 185.73 C 150.30 189.41 149.60 193.50 147.37 196.92 C 144.66 194.04 145.25 189.57 142.57 186.71 C 141.64 189.85 144.28 194.77 140.87 196.69 C 140.64 191.96 140.78 187.23 140.75 182.50 Z" />
<path fill="#f5f6f7" opacity="1.00" d=" M 167.30 185.57 C 167.74 184.48 168.07 183.24 169.34 182.86 C 169.10 184.59 169.25 186.25 171.06 187.05 C 170.60 187.37 169.67 188.00 169.21 188.32 C 169.57 190.82 167.93 194.81 171.41 195.58 C 170.61 197.07 169.08 196.29 167.81 196.10 C 167.22 193.07 168.62 189.46 166.41 186.94 C 166.64 186.60 167.08 185.91 167.30 185.57 Z" />
<path fill="#f5f6f7" opacity="1.00" d=" M 81.93 186.32 C 84.49 186.97 87.60 185.05 89.65 187.31 C 90.20 190.11 90.05 193.02 89.86 195.86 L 88.32 196.65 C 88.22 193.72 88.24 190.79 88.06 187.87 C 86.71 187.88 85.36 187.91 84.02 187.95 C 83.01 190.74 84.95 195.06 82.03 196.61 C 81.84 193.18 81.90 189.75 81.93 186.32 Z" />
<path fill="#f5f6f7" opacity="1.00" d=" M 95.34 196.03 C 90.81 195.41 90.85 187.49 95.07 186.17 C 97.01 186.10 98.93 186.71 100.86 186.22 L 100.86 186.61 C 100.74 190.23 101.17 193.90 100.56 197.49 C 99.90 200.36 96.70 200.38 94.35 200.37 C 93.15 199.59 92.51 198.30 91.84 197.10 C 93.48 197.09 94.55 198.42 95.98 198.99 C 97.38 199.25 99.08 198.11 98.92 196.55 L 99.01 196.03 C 97.79 195.88 96.57 195.88 95.34 196.03 M 95.10 188.03 C 93.04 189.19 94.11 191.86 94.07 193.73 L 93.95 194.06 C 95.13 194.25 96.45 195.53 97.60 194.69 C 99.79 193.61 98.80 190.79 99.08 188.88 C 97.85 188.29 96.44 186.81 95.10 188.03 Z" />
<path fill="#f5f6f7" opacity="1.00" d=" M 103.18 185.98 C 103.63 186.11 104.52 186.37 104.97 186.50 C 105.19 189.40 104.37 192.58 105.93 195.22 C 107.88 195.45 109.75 194.10 109.49 192.00 C 110.09 189.95 108.32 186.46 111.15 185.73 C 111.22 189.35 111.20 192.97 111.02 196.58 C 110.65 196.25 109.93 195.58 109.57 195.24 C 107.79 196.73 104.49 197.08 103.39 194.62 C 102.81 191.78 103.14 188.85 103.18 185.98 Z" />
<path fill="#f5f6f7" opacity="1.00" d=" M 117.61 189.45 C 118.68 185.66 123.00 185.34 126.00 186.95 C 126.09 190.20 126.25 193.45 126.41 196.70 C 125.92 196.36 124.92 195.69 124.43 195.35 C 122.40 196.69 118.80 197.19 117.60 194.63 C 117.56 194.06 117.47 192.92 117.42 192.35 C 119.59 190.78 122.21 190.28 124.78 189.80 C 124.59 189.28 124.21 188.26 124.03 187.75 C 121.67 187.06 119.65 188.53 117.61 189.45 M 120.32 192.19 C 118.93 192.60 119.47 195.21 120.89 194.78 C 122.09 195.93 124.94 194.32 123.92 192.72 L 123.94 192.36 C 122.79 191.71 121.58 191.65 120.32 192.19 Z" />
<path fill="#f5f6f7" opacity="1.00" d=" M 128.92 186.37 C 130.79 186.74 134.30 184.86 134.19 187.95 C 133.38 187.96 131.76 187.96 130.95 187.97 C 130.61 190.58 130.68 193.21 130.45 195.83 L 128.98 196.57 C 128.87 193.17 128.90 189.77 128.92 186.37 Z" />
<path fill="#f5f6f7" opacity="1.00" d=" M 156.33 189.65 C 156.54 185.76 161.70 184.95 164.24 187.10 C 164.97 190.05 164.52 193.14 164.98 196.14 C 162.41 194.88 159.70 197.37 157.23 195.90 C 155.30 195.09 155.65 192.21 157.35 191.34 C 159.15 190.35 161.29 190.32 163.27 189.89 C 162.78 185.96 158.12 187.86 156.33 189.65 M 158.21 193.78 L 157.64 194.92 C 159.04 194.98 160.45 195.01 161.86 195.02 C 162.11 194.43 162.63 193.27 162.88 192.69 C 163.64 190.36 157.35 191.66 158.21 193.78 Z" />
<path fill="#f5f6f7" opacity="1.00" d=" M 173.94 186.97 C 176.39 184.71 180.91 186.46 181.01 189.86 C 181.09 190.36 181.27 191.37 181.35 191.87 C 178.78 191.86 176.22 191.84 173.65 191.86 L 173.98 193.33 C 174.97 194.52 176.43 194.97 177.87 195.35 C 178.30 194.80 179.14 193.72 179.57 193.18 C 180.05 193.14 181.02 193.08 181.50 193.05 L 180.83 194.27 C 180.54 194.70 179.96 195.55 179.67 195.98 C 178.20 196.21 176.73 196.43 175.25 196.61 C 171.54 194.98 170.83 189.49 173.94 186.97 M 173.59 190.29 C 175.63 190.32 177.68 190.28 179.72 190.21 C 179.05 186.67 174.29 186.96 173.59 190.29 Z" />
<path fill="#f5f6f7" opacity="1.00" d=" M 183.29 185.95 C 184.02 186.21 184.76 186.47 185.50 186.73 C 186.50 186.50 188.51 186.03 189.52 185.79 C 188.46 187.41 186.41 187.86 185.24 189.32 C 184.82 191.87 184.91 194.49 184.57 197.06 C 184.22 196.79 183.52 196.25 183.17 195.98 C 183.21 192.64 183.23 189.29 183.29 185.95 Z" />
<path fill="#f5f6f7" opacity="1.00" d=" M 189.55 186.89 C 189.97 186.57 190.82 185.93 191.24 185.61 C 191.46 189.34 191.64 193.11 190.99 196.80 C 188.62 194.86 190.18 191.44 189.62 188.84 C 189.60 188.35 189.57 187.38 189.55 186.89 Z" />
<path fill="#f5f6f7" opacity="1.00" d=" M 193.43 189.27 C 194.52 185.66 199.67 184.80 202.04 187.61 C 202.04 190.56 201.99 193.52 202.14 196.48 C 201.70 196.20 200.80 195.66 200.36 195.38 C 199.25 195.80 198.14 196.21 197.04 196.63 C 196.27 196.43 194.73 196.03 193.96 195.83 C 193.78 194.60 192.76 193.07 193.89 192.01 C 195.33 190.65 197.44 190.34 199.33 190.02 L 200.72 189.84 C 199.97 186.96 196.70 187.21 195.01 189.03 L 193.43 189.27 M 196.02 194.73 C 197.30 195.96 200.70 194.71 199.80 192.79 L 199.90 192.36 C 198.46 190.31 193.33 192.88 196.02 194.73 Z" />
</g>
<g id="#3f51b5ff">
<path fill="#3f51b5" opacity="1.00" d=" M 16.27 2.39 C 19.50 2.11 22.75 2.28 25.99 2.25 C 86.35 2.25 146.71 2.26 207.07 2.25 C 213.21 1.99 219.30 5.52 222.02 11.04 C 224.05 14.68 223.54 18.96 223.59 22.96 C 223.56 84.64 223.60 146.33 223.58 208.01 C 223.68 216.14 216.13 223.53 207.97 223.11 C 144.29 223.07 80.61 223.12 16.92 223.09 C 8.75 222.93 1.98 215.10 2.25 207.06 C 2.25 146.04 2.27 85.03 2.25 24.02 C 2.31 19.88 1.77 15.48 3.70 11.64 C 5.91 6.65 10.85 3.02 16.27 2.39 M 153.25 50.28 C 140.54 45.81 127.87 41.22 115.17 36.74 C 95.13 44.03 74.99 51.07 54.92 58.31 C 55.70 68.95 57.50 79.48 58.44 90.11 C 60.44 106.27 62.03 122.49 64.17 138.63 C 81.20 148.02 98.27 157.35 115.16 166.98 C 132.37 157.55 149.48 147.94 166.68 138.50 C 168.91 118.20 171.35 97.93 173.69 77.64 C 171.64 77.60 169.56 77.70 167.56 77.21 C 170.50 77.11 173.45 77.07 176.39 77.18 L 175.46 78.22 C 179.26 77.43 184.82 76.54 186.03 72.28 C 191.43 66.87 194.50 58.55 192.07 51.06 C 189.99 43.52 183.28 37.65 175.55 36.49 C 166.08 34.87 156.12 41.16 153.25 50.28 M 13.49 180.50 C 16.41 182.35 19.64 183.62 22.76 185.08 C 20.02 187.29 16.84 188.82 13.90 190.72 C 16.56 191.94 19.21 193.20 21.80 194.57 C 19.98 197.54 16.74 198.94 13.77 200.44 C 14.38 201.36 14.97 202.38 16.08 202.76 C 23.99 206.67 31.94 210.56 39.99 214.15 C 45.83 211.68 50.87 207.58 56.47 204.59 C 57.73 203.63 60.68 202.90 59.36 200.81 C 57.05 199.40 54.42 198.63 51.93 197.61 C 54.42 194.93 58.95 194.43 60.30 190.77 L 59.50 191.13 C 56.55 189.20 53.24 187.95 50.01 186.57 C 53.33 184.66 56.65 182.73 59.81 180.56 C 51.04 176.80 42.51 172.47 33.88 168.38 C 27.00 172.27 20.40 176.66 13.49 180.50 M 114.85 181.34 C 113.34 186.01 113.75 191.21 114.40 195.99 C 114.70 196.37 115.32 197.14 115.63 197.52 C 116.51 196.69 117.17 195.73 117.60 194.63 C 118.80 197.19 122.40 196.69 124.43 195.35 C 124.92 195.69 125.92 196.36 126.41 196.70 C 126.25 193.45 126.09 190.20 126.00 186.95 C 123.00 185.34 118.68 185.66 117.61 189.45 C 119.65 188.53 121.67 187.06 124.03 187.75 C 124.21 188.26 124.59 189.28 124.78 189.80 C 122.21 190.28 119.59 190.78 117.42 192.35 C 117.15 189.07 117.06 185.78 116.90 182.50 C 116.65 182.67 116.17 183.00 115.93 183.17 C 115.66 182.71 115.12 181.79 114.85 181.34 M 189.94 184.35 C 190.20 184.63 190.74 185.19 191.01 185.48 L 191.72 184.90 L 191.53 184.12 C 193.47 181.45 187.79 181.94 189.94 184.35 M 204.66 190.00 C 204.96 192.21 203.75 195.17 205.95 196.71 C 206.43 191.77 206.33 186.79 206.04 181.84 C 203.58 183.81 205.08 187.32 204.66 190.00 M 67.64 197.11 C 70.54 198.12 71.61 195.62 72.21 193.30 C 73.88 193.19 75.54 193.10 77.21 193.01 C 77.85 194.57 78.26 196.53 80.45 196.37 C 78.55 191.43 77.15 186.09 73.99 181.78 C 70.92 186.41 69.55 191.94 67.64 197.11 M 140.75 182.50 C 140.78 187.23 140.64 191.96 140.87 196.69 C 144.28 194.77 141.64 189.85 142.57 186.71 C 145.25 189.57 144.66 194.04 147.37 196.92 L 147.00 197.57 C 150.42 196.67 150.78 192.53 152.00 189.75 C 152.01 192.05 152.03 194.35 151.78 196.64 C 152.86 196.99 153.96 197.23 155.10 197.35 C 154.92 192.37 156.24 186.89 154.12 182.27 C 153.39 182.41 151.94 182.69 151.21 182.84 C 149.94 186.61 148.76 190.41 147.43 194.16 C 146.10 190.38 144.74 186.61 143.71 182.75 C 142.97 182.69 141.49 182.56 140.75 182.50 M 167.30 185.57 C 167.08 185.91 166.64 186.60 166.41 186.94 C 168.62 189.46 167.22 193.07 167.81 196.10 C 169.08 196.29 170.61 197.07 171.41 195.58 C 167.93 194.81 169.57 190.82 169.21 188.32 C 169.67 188.00 170.60 187.37 171.06 187.05 C 169.25 186.25 169.10 184.59 169.34 182.86 C 168.07 183.24 167.74 184.48 167.30 185.57 M 81.93 186.32 C 81.90 189.75 81.84 193.18 82.03 196.61 C 84.95 195.06 83.01 190.74 84.02 187.95 C 85.36 187.91 86.71 187.88 88.06 187.87 C 88.24 190.79 88.22 193.72 88.32 196.65 L 89.86 195.86 C 90.05 193.02 90.20 190.11 89.65 187.31 C 87.60 185.05 84.49 186.97 81.93 186.32 M 95.34 196.03 C 95.14 197.73 98.13 197.55 98.92 196.55 C 99.08 198.11 97.38 199.25 95.98 198.99 C 94.55 198.42 93.48 197.09 91.84 197.10 C 92.51 198.30 93.15 199.59 94.35 200.37 C 96.61 202.45 101.21 201.19 101.78 198.02 C 102.51 194.51 102.60 190.82 102.03 187.28 L 100.86 186.61 L 100.86 186.22 C 98.93 186.71 97.01 186.10 95.07 186.17 C 90.85 187.49 90.81 195.41 95.34 196.03 M 103.18 185.98 C 103.14 188.85 102.81 191.78 103.39 194.62 C 104.49 197.08 107.79 196.73 109.57 195.24 C 109.93 195.58 110.65 196.25 111.02 196.58 C 111.20 192.97 111.22 189.35 111.15 185.73 C 108.32 186.46 110.09 189.95 109.49 192.00 C 109.75 194.10 107.88 195.45 105.93 195.22 C 105.87 192.40 107.22 188.72 104.97 186.50 C 104.52 186.37 103.63 186.11 103.18 185.98 M 128.92 186.37 C 128.90 189.77 128.87 193.17 128.98 196.57 L 130.45 195.83 C 130.68 193.21 130.61 190.58 130.95 187.97 C 131.76 187.96 133.38 187.96 134.19 187.95 C 134.30 184.86 130.79 186.74 128.92 186.37 M 156.33 189.65 C 158.12 187.86 162.78 185.96 163.27 189.89 C 161.29 190.32 159.15 190.35 157.35 191.34 C 155.65 192.21 155.30 195.09 157.23 195.90 C 159.70 197.37 162.41 194.88 164.98 196.14 C 164.52 193.14 164.97 190.05 164.24 187.10 C 161.70 184.95 156.54 185.76 156.33 189.65 M 173.94 186.97 C 170.83 189.49 171.54 194.98 175.25 196.61 L 174.11 196.78 C 177.17 198.75 181.63 197.40 182.46 193.69 L 180.83 194.27 L 181.50 193.05 L 182.19 193.00 C 182.23 192.17 182.30 190.50 182.34 189.66 L 181.01 189.86 C 180.91 186.46 176.39 184.71 173.94 186.97 M 183.29 185.95 C 183.23 189.29 183.21 192.64 183.17 195.98 C 183.52 196.25 184.22 196.79 184.57 197.06 L 185.97 197.12 C 186.11 194.57 186.19 192.01 186.28 189.46 C 187.12 189.30 188.79 188.99 189.62 188.84 C 190.18 191.44 188.62 194.86 190.99 196.80 C 191.64 193.11 191.46 189.34 191.24 185.61 C 190.82 185.93 189.97 186.57 189.55 186.89 L 189.52 185.79 C 188.51 186.03 186.50 186.50 185.50 186.73 C 184.76 186.47 184.02 186.21 183.29 185.95 M 193.43 189.27 L 195.01 189.03 L 194.19 189.74 C 195.89 190.02 197.61 190.11 199.33 190.02 C 197.44 190.34 195.33 190.65 193.89 192.01 C 192.76 193.07 193.78 194.60 193.96 195.83 C 194.73 196.03 196.27 196.43 197.04 196.63 C 198.14 196.21 199.25 195.80 200.36 195.38 C 200.80 195.66 201.70 196.20 202.14 196.48 L 202.20 197.59 C 204.00 194.75 203.78 190.46 202.04 187.61 C 199.67 184.80 194.52 185.66 193.43 189.27 Z" />
<path fill="#3f51b5" opacity="1.00" d=" M 113.73 58.71 C 114.24 57.00 115.95 56.44 117.43 55.83 C 129.40 82.58 141.29 109.38 153.24 136.14 C 148.52 136.15 143.79 136.17 139.07 136.13 C 136.55 129.81 133.95 123.53 131.56 117.16 C 120.80 117.03 110.03 117.04 99.27 117.06 C 97.17 122.31 95.04 127.55 92.97 132.82 C 89.17 135.17 84.61 135.52 80.35 134.36 C 91.32 109.07 102.88 84.05 113.73 58.71 M 104.33 105.26 C 111.71 105.38 119.09 105.29 126.47 105.21 L 126.22 104.59 C 127.41 103.20 126.49 101.51 126.00 100.08 C 123.54 94.02 120.86 88.05 118.48 81.96 C 118.21 82.32 117.68 83.03 117.41 83.38 C 116.79 81.86 116.14 80.34 115.51 78.82 C 111.41 87.46 108.00 96.42 104.33 105.26 M 104.76 106.78 C 111.86 107.59 119.07 107.25 126.17 106.53 C 122.09 104.57 117.35 105.97 112.99 105.56 C 110.28 105.85 106.95 104.70 104.76 106.78 Z" />
<path fill="#3f51b5" opacity="1.00" d=" M 95.62 189.48 C 96.77 189.28 97.92 189.08 99.08 188.88 C 98.80 190.79 99.79 193.61 97.60 194.69 C 96.45 195.53 95.13 194.25 93.95 194.06 L 94.07 193.73 C 94.61 192.31 95.12 190.90 95.62 189.48 Z" />
<path fill="#3f51b5" opacity="1.00" d=" M 120.89 194.78 C 121.23 193.49 122.66 192.73 123.92 192.72 C 124.94 194.32 122.09 195.93 120.89 194.78 Z" />
<path fill="#3f51b5" opacity="1.00" d=" M 158.21 193.78 C 159.78 193.48 161.37 193.23 162.88 192.69 C 162.63 193.27 162.11 194.43 161.86 195.02 C 160.45 195.01 159.04 194.98 157.64 194.92 L 158.21 193.78 Z" />
<path fill="#3f51b5" opacity="1.00" d=" M 173.98 193.33 C 175.84 193.26 177.70 193.24 179.57 193.18 C 179.14 193.72 178.30 194.80 177.87 195.35 C 176.43 194.97 174.97 194.52 173.98 193.33 Z" />
<path fill="#3f51b5" opacity="1.00" d=" M 196.02 194.73 C 196.69 193.37 198.41 192.91 199.80 192.79 C 200.70 194.71 197.30 195.96 196.02 194.73 Z" />
</g>
<g id="#64cce6ff">
<path fill="#64cce6" opacity="1.00" d=" M 153.25 50.28 C 156.12 41.16 166.08 34.87 175.55 36.49 C 183.28 37.65 189.99 43.52 192.07 51.06 C 194.50 58.55 191.43 66.87 186.03 72.28 C 183.18 74.55 179.90 76.21 176.39 77.18 C 173.45 77.07 170.50 77.11 167.56 77.21 C 156.27 74.59 149.28 61.09 153.25 50.28 M 171.18 55.29 C 169.79 55.29 168.41 55.28 167.03 55.28 C 167.03 55.88 167.02 57.10 167.02 57.70 C 168.43 57.71 169.84 57.72 171.25 57.75 C 171.28 59.44 171.32 61.13 171.35 62.82 C 171.95 62.86 173.15 62.93 173.75 62.97 C 173.81 61.25 173.88 59.53 173.96 57.81 C 175.49 57.47 179.01 58.50 178.67 55.86 C 177.21 55.16 175.56 55.27 174.00 55.11 C 173.87 53.13 174.36 50.35 171.66 49.99 C 171.46 51.76 171.30 53.52 171.18 55.29 Z" />
<path fill="#64cce6" opacity="1.00" d=" M 114.86 184.10 C 115.13 183.87 115.66 183.40 115.93 183.17 C 115.89 187.95 116.29 192.76 115.63 197.52 C 115.32 197.14 114.70 196.37 114.40 195.99 C 115.59 192.14 115.01 188.05 114.86 184.10 Z" />
<path fill="#64cce6" opacity="1.00" d=" M 22.76 185.08 C 28.45 187.55 33.92 190.48 39.64 192.89 C 43.04 190.70 46.48 188.56 50.01 186.57 C 53.24 187.95 56.55 189.20 59.50 191.13 C 52.80 194.34 46.83 198.86 40.27 202.34 C 39.04 203.02 37.72 201.96 36.55 201.62 C 31.64 199.25 26.63 197.09 21.80 194.57 C 19.21 193.20 16.56 191.94 13.90 190.72 C 16.84 188.82 20.02 187.29 22.76 185.08 Z" />
</g>
<g id="#224687ff">
<path fill="#224687" opacity="1.00" d=" M 77.65 136.04 C 90.40 107.90 102.67 79.54 115.51 51.44 C 116.16 52.90 116.79 54.37 117.43 55.83 C 115.95 56.44 114.24 57.00 113.73 58.71 C 102.88 84.05 91.32 109.07 80.35 134.36 C 84.61 135.52 89.17 135.17 92.97 132.82 C 92.57 133.83 92.18 134.85 91.80 135.87 C 87.08 135.92 82.36 135.78 77.65 136.04 Z" />
<path fill="#224687" opacity="1.00" d=" M 176.39 77.18 C 179.90 76.21 183.18 74.55 186.03 72.28 C 184.82 76.54 179.26 77.43 175.46 78.22 L 176.39 77.18 Z" />
<path fill="#224687" opacity="1.00" d=" M 117.41 83.38 C 117.68 83.03 118.21 82.32 118.48 81.96 C 120.86 88.05 123.54 94.02 126.00 100.08 C 126.49 101.51 127.41 103.20 126.22 104.59 C 123.33 97.50 120.26 90.49 117.41 83.38 Z" />
<path fill="#224687" opacity="1.00" d=" M 104.76 106.78 C 106.95 104.70 110.28 105.85 112.99 105.56 C 117.35 105.97 122.09 104.57 126.17 106.53 C 119.07 107.25 111.86 107.59 104.76 106.78 Z" />
<path fill="#224687" opacity="1.00" d=" M 115.93 183.17 C 116.17 183.00 116.65 182.67 116.90 182.50 C 117.06 185.78 117.15 189.07 117.42 192.35 C 117.47 192.92 117.56 194.06 117.60 194.63 C 117.17 195.73 116.51 196.69 115.63 197.52 C 116.29 192.76 115.89 187.95 115.93 183.17 Z" />
<path fill="#224687" opacity="1.00" d=" M 154.12 182.27 C 156.24 186.89 154.92 192.37 155.10 197.35 C 153.96 197.23 152.86 196.99 151.78 196.64 C 152.33 196.51 153.43 196.26 153.98 196.13 C 153.99 191.51 153.83 186.88 154.12 182.27 Z" />
<path fill="#224687" opacity="1.00" d=" M 189.94 184.35 C 190.33 184.29 191.13 184.18 191.53 184.12 L 191.72 184.90 L 191.01 185.48 C 190.74 185.19 190.20 184.63 189.94 184.35 Z" />
<path fill="#224687" opacity="1.00" d=" M 72.12 190.31 C 72.13 188.30 73.33 186.55 74.26 184.85 C 74.89 186.73 75.55 188.61 76.07 190.54 C 74.75 190.49 73.43 190.42 72.12 190.31 Z" />
<path fill="#224687" opacity="1.00" d=" M 147.37 196.92 C 149.60 193.50 150.30 189.41 151.92 185.73 C 151.99 187.06 152.01 188.41 152.00 189.75 C 150.78 192.53 150.42 196.67 147.00 197.57 L 147.37 196.92 Z" />
<path fill="#224687" opacity="1.00" d=" M 189.52 185.79 L 189.55 186.89 C 189.57 187.38 189.60 188.35 189.62 188.84 C 188.79 188.99 187.12 189.30 186.28 189.46 C 186.19 192.01 186.11 194.57 185.97 197.12 L 184.57 197.06 C 184.91 194.49 184.82 191.87 185.24 189.32 C 186.41 187.86 188.46 187.41 189.52 185.79 Z" />
<path fill="#224687" opacity="1.00" d=" M 95.10 188.03 C 96.44 186.81 97.85 188.29 99.08 188.88 C 97.92 189.08 96.77 189.28 95.62 189.48 C 95.12 190.90 94.61 192.31 94.07 193.73 C 94.11 191.86 93.04 189.19 95.10 188.03 Z" />
<path fill="#224687" opacity="1.00" d=" M 100.86 186.61 L 102.03 187.28 C 102.60 190.82 102.51 194.51 101.78 198.02 C 101.21 201.19 96.61 202.45 94.35 200.37 C 96.70 200.38 99.90 200.36 100.56 197.49 C 101.17 193.90 100.74 190.23 100.86 186.61 Z" />
<path fill="#224687" opacity="1.00" d=" M 104.97 186.50 C 107.22 188.72 105.87 192.40 105.93 195.22 C 104.37 192.58 105.19 189.40 104.97 186.50 Z" />
<path fill="#224687" opacity="1.00" d=" M 173.59 190.29 C 174.29 186.96 179.05 186.67 179.72 190.21 C 177.68 190.28 175.63 190.32 173.59 190.29 Z" />
<path fill="#224687" opacity="1.00" d=" M 195.01 189.03 C 196.70 187.21 199.97 186.96 200.72 189.84 L 199.33 190.02 C 197.61 190.11 195.89 190.02 194.19 189.74 L 195.01 189.03 Z" />
<path fill="#224687" opacity="1.00" d=" M 202.04 187.61 C 203.78 190.46 204.00 194.75 202.20 197.59 L 202.14 196.48 C 201.99 193.52 202.04 190.56 202.04 187.61 Z" />
<path fill="#224687" opacity="1.00" d=" M 181.01 189.86 L 182.34 189.66 C 182.30 190.50 182.23 192.17 182.19 193.00 L 181.50 193.05 C 181.02 193.08 180.05 193.14 179.57 193.18 C 177.70 193.24 175.84 193.26 173.98 193.33 L 173.65 191.86 C 176.22 191.84 178.78 191.86 181.35 191.87 C 181.27 191.37 181.09 190.36 181.01 189.86 Z" />
<path fill="#224687" opacity="1.00" d=" M 59.50 191.13 L 60.30 190.77 C 58.95 194.43 54.42 194.93 51.93 197.61 C 54.42 198.63 57.05 199.40 59.36 200.81 C 60.68 202.90 57.73 203.63 56.47 204.59 C 50.87 207.58 45.83 211.68 39.99 214.15 C 31.94 210.56 23.99 206.67 16.08 202.76 C 14.97 202.38 14.38 201.36 13.77 200.44 C 16.74 198.94 19.98 197.54 21.80 194.57 C 26.63 197.09 31.64 199.25 36.55 201.62 C 37.72 201.96 39.04 203.02 40.27 202.34 C 46.83 198.86 52.80 194.34 59.50 191.13 Z" />
<path fill="#224687" opacity="1.00" d=" M 158.21 193.78 C 157.35 191.66 163.64 190.36 162.88 192.69 C 161.37 193.23 159.78 193.48 158.21 193.78 Z" />
<path fill="#224687" opacity="1.00" d=" M 71.36 192.00 C 73.16 192.00 74.97 191.97 76.78 192.04 L 77.21 193.01 C 75.54 193.10 73.88 193.19 72.21 193.30 C 71.61 195.62 70.54 198.12 67.64 197.11 C 69.79 196.16 70.72 194.09 71.36 192.00 Z" />
<path fill="#224687" opacity="1.00" d=" M 120.32 192.19 C 121.58 191.65 122.79 191.71 123.94 192.36 L 123.92 192.72 C 122.66 192.73 121.23 193.49 120.89 194.78 C 119.47 195.21 118.93 192.60 120.32 192.19 Z" />
<path fill="#224687" opacity="1.00" d=" M 196.02 194.73 C 193.33 192.88 198.46 190.31 199.90 192.36 L 199.80 192.79 C 198.41 192.91 196.69 193.37 196.02 194.73 Z" />
<path fill="#224687" opacity="1.00" d=" M 180.83 194.27 L 182.46 193.69 C 181.63 197.40 177.17 198.75 174.11 196.78 L 175.25 196.61 C 176.73 196.43 178.20 196.21 179.67 195.98 C 179.96 195.55 180.54 194.70 180.83 194.27 Z" />
<path fill="#224687" opacity="1.00" d=" M 95.34 196.03 C 96.57 195.88 97.79 195.88 99.01 196.03 L 98.92 196.55 C 98.13 197.55 95.14 197.73 95.34 196.03 Z" />
</g>
</svg>
