<?xml version="1.0" encoding="UTF-8" standalone="no"?>
<!DOCTYPE svg PUBLIC "-//W3C//DTD SVG 1.1//EN"
 "http://www.w3.org/Graphics/SVG/1.1/DTD/svg11.dtd">
<!-- Generated by graphviz version 5.0.0 (20220707.1540)
 -->
<!-- Title: dependencies Pages: 1 -->
<svg width="1333pt" height="247pt"
 viewBox="0.00 0.00 1333.00 246.80" xmlns="http://www.w3.org/2000/svg" xmlns:xlink="http://www.w3.org/1999/xlink">
<g id="graph0" class="graph" transform="scale(1 1) rotate(0) translate(4 242.8)">
<title>dependencies</title>
<polygon fill="white" stroke="transparent" points="-4,4 -4,-242.8 1329,-242.8 1329,4 -4,4"/>
<text text-anchor="middle" x="662.5" y="-8.2" font-family="sans-serif" font-size="14.00">dependencies</text>
<g id="clust1" class="cluster">
<title>cluster_AppModule</title>
<polygon fill="none" stroke="black" stroke-dasharray="1,5" points="8,-32.8 8,-230.8 1317,-230.8 1317,-32.8 8,-32.8"/>
</g>
<g id="clust2" class="cluster">
<title>cluster_AppModule_declarations</title>
<polygon fill="none" stroke="black" points="293,-40.8 293,-92.8 1309,-92.8 1309,-40.8 293,-40.8"/>
</g>
<g id="clust9" class="cluster">
<title>cluster_AppModule_imports</title>
<polygon fill="none" stroke="black" points="16,-40.8 16,-92.8 285,-92.8 285,-40.8 16,-40.8"/>
</g>
<g id="clust11" class="cluster">
<title>cluster_AppModule_bootstrap</title>
<polygon fill="none" stroke="black" points="595,-170.8 595,-222.8 719,-222.8 719,-170.8 595,-170.8"/>
</g>
<!-- AppComponent -->
<g id="node1" class="node">
<title>AppComponent</title>
<polygon fill="#ffffb3" stroke="black" points="1300.94,-84.8 1195.06,-84.8 1195.06,-48.8 1300.94,-48.8 1300.94,-84.8"/>
<text text-anchor="middle" x="1248" y="-62.6" font-family="Times,serif" font-size="14.00">AppComponent</text>
</g>
<!-- AppModule -->
<g id="node7" class="node">
<title>AppModule</title>
<polygon fill="#8dd3c7" stroke="black" points="698.66,-149.8 695.66,-153.8 674.66,-153.8 671.66,-149.8 615.34,-149.8 615.34,-113.8 698.66,-113.8 698.66,-149.8"/>
<text text-anchor="middle" x="657" y="-127.6" font-family="Times,serif" font-size="14.00">AppModule</text>
</g>
<!-- AppComponent&#45;&gt;AppModule -->
<g id="edge1" class="edge">
<title>AppComponent&#45;&gt;AppModule</title>
<path fill="none" stroke="black" d="M1248,-85.09C1248,-107.01 1248,-140.8 1248,-140.8 1248,-140.8 709.03,-140.8 709.03,-140.8"/>
<polygon fill="black" stroke="black" points="709.03,-137.3 699.03,-140.8 709.03,-144.3 709.03,-137.3"/>
</g>
<!-- ButtonsIconsComponent -->
<g id="node2" class="node">
<title>ButtonsIconsComponent</title>
<polygon fill="#ffffb3" stroke="black" points="1177.72,-84.8 1022.28,-84.8 1022.28,-48.8 1177.72,-48.8 1177.72,-84.8"/>
<text text-anchor="middle" x="1100" y="-62.6" font-family="Times,serif" font-size="14.00">ButtonsIconsComponent</text>
</g>
<!-- ButtonsIconsComponent&#45;&gt;AppModule -->
<g id="edge2" class="edge">
<title>ButtonsIconsComponent&#45;&gt;AppModule</title>
<path fill="none" stroke="black" d="M1100,-84.91C1100,-104.14 1100,-131.8 1100,-131.8 1100,-131.8 708.68,-131.8 708.68,-131.8"/>
<polygon fill="black" stroke="black" points="708.68,-128.3 698.68,-131.8 708.68,-135.3 708.68,-128.3"/>
</g>
<!-- DataGridComponent -->
<g id="node3" class="node">
<title>DataGridComponent</title>
<polygon fill="#ffffb3" stroke="black" points="1004.92,-84.8 871.08,-84.8 871.08,-48.8 1004.92,-48.8 1004.92,-84.8"/>
<text text-anchor="middle" x="938" y="-62.6" font-family="Times,serif" font-size="14.00">DataGridComponent</text>
</g>
<!-- DataGridComponent&#45;&gt;AppModule -->
<g id="edge3" class="edge">
<title>DataGridComponent&#45;&gt;AppModule</title>
<path fill="none" stroke="black" d="M938,-84.83C938,-101.2 938,-122.8 938,-122.8 938,-122.8 708.77,-122.8 708.77,-122.8"/>
<polygon fill="black" stroke="black" points="708.77,-119.3 698.77,-122.8 708.77,-126.3 708.77,-119.3"/>
</g>
<!-- FormFieldInputComponent -->
<g id="node4" class="node">
<title>FormFieldInputComponent</title>
<polygon fill="#ffffb3" stroke="black" points="853,-84.8 683,-84.8 683,-48.8 853,-48.8 853,-84.8"/>
<text text-anchor="middle" x="768" y="-62.6" font-family="Times,serif" font-size="14.00">FormFieldInputComponent</text>
</g>
<!-- FormFieldInputComponent&#45;&gt;AppModule -->
<g id="edge4" class="edge">
<title>FormFieldInputComponent&#45;&gt;AppModule</title>
<path fill="none" stroke="black" d="M690.92,-84.91C690.92,-84.91 690.92,-103.79 690.92,-103.79"/>
<polygon fill="black" stroke="black" points="687.42,-103.79 690.92,-113.79 694.42,-103.79 687.42,-103.79"/>
</g>
<!-- ProgressSpinnerComponentComponent -->
<g id="node5" class="node">
<title>ProgressSpinnerComponentComponent</title>
<polygon fill="#ffffb3" stroke="black" points="665.43,-84.8 426.57,-84.8 426.57,-48.8 665.43,-48.8 665.43,-84.8"/>
<text text-anchor="middle" x="546" y="-62.6" font-family="Times,serif" font-size="14.00">ProgressSpinnerComponentComponent</text>
</g>
<!-- ProgressSpinnerComponentComponent&#45;&gt;AppModule -->
<g id="edge5" class="edge">
<title>ProgressSpinnerComponentComponent&#45;&gt;AppModule</title>
<path fill="none" stroke="black" d="M640.19,-84.91C640.19,-84.91 640.19,-103.79 640.19,-103.79"/>
<polygon fill="black" stroke="black" points="636.69,-103.79 640.19,-113.79 643.69,-103.79 636.69,-103.79"/>
</g>
<!-- TabsComponent -->
<g id="node6" class="node">
<title>TabsComponent</title>
<polygon fill="#ffffb3" stroke="black" points="409.05,-84.8 300.95,-84.8 300.95,-48.8 409.05,-48.8 409.05,-84.8"/>
<text text-anchor="middle" x="355" y="-62.6" font-family="Times,serif" font-size="14.00">TabsComponent</text>
</g>
<!-- TabsComponent&#45;&gt;AppModule -->
<g id="edge6" class="edge">
<title>TabsComponent&#45;&gt;AppModule</title>
<path fill="none" stroke="black" d="M355,-84.83C355,-101.2 355,-122.8 355,-122.8 355,-122.8 605.33,-122.8 605.33,-122.8"/>
<polygon fill="black" stroke="black" points="605.33,-126.3 615.33,-122.8 605.33,-119.3 605.33,-126.3"/>
</g>
<!-- AppComponent  -->
<g id="node10" class="node">
<title>AppComponent </title>
<polygon fill="#80b1d3" stroke="black" points="711.44,-214.8 602.56,-214.8 602.56,-178.8 711.44,-178.8 711.44,-214.8"/>
<text text-anchor="middle" x="657" y="-192.6" font-family="Times,serif" font-size="14.00">AppComponent </text>
</g>
<!-- AppModule&#45;&gt;AppComponent  -->
<g id="edge9" class="edge">
<title>AppModule&#45;&gt;AppComponent </title>
<path fill="none" stroke="black" stroke-dasharray="1,5" d="M657,-149.91C657,-149.91 657,-168.79 657,-168.79"/>
<polygon fill="black" stroke="black" points="653.5,-168.79 657,-178.79 660.5,-168.79 653.5,-168.79"/>
</g>
<!-- AppRoutingModule -->
<g id="node8" class="node">
<title>AppRoutingModule</title>
<polygon fill="#8dd3c7" stroke="black" points="277.28,-84.8 274.28,-88.8 253.28,-88.8 250.28,-84.8 148.72,-84.8 148.72,-48.8 277.28,-48.8 277.28,-84.8"/>
<text text-anchor="middle" x="213" y="-62.6" font-family="Times,serif" font-size="14.00">AppRoutingModule</text>
</g>
<!-- AppRoutingModule&#45;&gt;AppModule -->
<g id="edge7" class="edge">
<title>AppRoutingModule&#45;&gt;AppModule</title>
<path fill="none" stroke="black" d="M213,-84.91C213,-104.14 213,-131.8 213,-131.8 213,-131.8 605.23,-131.8 605.23,-131.8"/>
<polygon fill="black" stroke="black" points="605.23,-135.3 615.23,-131.8 605.23,-128.3 605.23,-135.3"/>
</g>
<!-- MaterialModule -->
<g id="node9" class="node">
<title>MaterialModule</title>
<polygon fill="#8dd3c7" stroke="black" points="130.47,-84.8 127.47,-88.8 106.47,-88.8 103.47,-84.8 23.53,-84.8 23.53,-48.8 130.47,-48.8 130.47,-84.8"/>
<text text-anchor="middle" x="77" y="-62.6" font-family="Times,serif" font-size="14.00">MaterialModule</text>
</g>
<!-- MaterialModule&#45;&gt;AppModule -->
<g id="edge8" class="edge">
<title>MaterialModule&#45;&gt;AppModule</title>
<path fill="none" stroke="black" d="M77,-85.09C77,-107.01 77,-140.8 77,-140.8 77,-140.8 605.29,-140.8 605.29,-140.8"/>
<polygon fill="black" stroke="black" points="605.29,-144.3 615.29,-140.8 605.29,-137.3 605.29,-144.3"/>
</g>
</g>
</svg>
